<svg width="329" height="77" viewBox="0 0 329 77" fill="none" xmlns="http://www.w3.org/2000/svg">
<path d="M289.292 0H9.70779C4.34633 0 0 4.78807 0 10.6944V66.3056C0 72.2119 4.34633 77 9.70779 77H289.292C294.654 77 299 72.2119 299 66.3056V10.6944C299 4.78807 294.654 0 289.292 0Z" fill="black"/>
<path d="M103.29 35.5551C103.009 37.9613 102.118 39.8207 100.618 41.1332C99.1285 42.4353 97.1441 43.0863 94.6649 43.0863C91.9774 43.0863 89.8212 42.1228 88.1962 40.1957C86.5816 38.2686 85.7743 35.6905 85.7743 32.4613V30.2738C85.7743 28.1592 86.1493 26.2998 86.8993 24.6957C87.6597 23.0915 88.7326 21.8623 90.118 21.0082C91.5035 20.1436 93.1076 19.7113 94.9305 19.7113C97.3472 19.7113 99.2847 20.3884 100.743 21.7426C102.201 23.0863 103.05 24.9509 103.29 27.3363H100.274C100.014 25.5238 99.4462 24.2113 98.5712 23.3988C97.7066 22.5863 96.493 22.1801 94.9305 22.1801C93.0139 22.1801 91.5087 22.8884 90.4149 24.3051C89.3316 25.7217 88.7899 27.7373 88.7899 30.3519V32.5551C88.7899 35.0238 89.3055 36.9873 90.3368 38.4457C91.368 39.904 92.8108 40.6332 94.6649 40.6332C96.3316 40.6332 97.6076 40.2582 98.493 39.5082C99.3889 38.7478 99.9826 37.4301 100.274 35.5551H103.29ZM106.181 34.1644C106.181 32.5082 106.503 31.0186 107.149 29.6957C107.806 28.3728 108.712 27.3519 109.868 26.6332C111.035 25.9144 112.363 25.5551 113.852 25.5551C116.155 25.5551 118.014 26.3519 119.431 27.9457C120.858 29.5394 121.571 31.6592 121.571 34.3051V34.5082C121.571 36.154 121.253 37.6332 120.618 38.9457C119.993 40.2478 119.092 41.2634 117.915 41.9926C116.748 42.7217 115.405 43.0863 113.884 43.0863C111.592 43.0863 109.733 42.2894 108.306 40.6957C106.889 39.1019 106.181 36.9926 106.181 34.3676V34.1644ZM109.087 34.5082C109.087 36.3832 109.519 37.8884 110.384 39.0238C111.259 40.1592 112.425 40.7269 113.884 40.7269C115.352 40.7269 116.519 40.154 117.384 39.0082C118.248 37.8519 118.681 36.2373 118.681 34.1644C118.681 32.3103 118.238 30.8103 117.352 29.6644C116.477 28.5082 115.311 27.9301 113.852 27.9301C112.425 27.9301 111.274 28.4978 110.399 29.6332C109.524 30.7686 109.087 32.3936 109.087 34.5082ZM127.931 25.8676L128.024 27.9926C129.316 26.3676 131.003 25.5551 133.087 25.5551C136.66 25.5551 138.462 27.5707 138.493 31.6019V42.7738H135.602V31.5863C135.592 30.3676 135.311 29.4665 134.759 28.8832C134.217 28.2998 133.368 28.0082 132.212 28.0082C131.274 28.0082 130.451 28.2582 129.743 28.7582C129.035 29.2582 128.483 29.9144 128.087 30.7269V42.7738H125.196V25.8676H127.931ZM146.774 21.7738V25.8676H149.931V28.1019H146.774V38.5863C146.774 39.2634 146.915 39.7738 147.196 40.1176C147.477 40.4509 147.957 40.6176 148.634 40.6176C148.967 40.6176 149.425 40.5551 150.009 40.4301V42.7738C149.248 42.9821 148.509 43.0863 147.79 43.0863C146.498 43.0863 145.524 42.6957 144.868 41.9144C144.212 41.1332 143.884 40.0238 143.884 38.5863V28.1019H140.806V25.8676H143.884V21.7738H146.774ZM156.462 42.7738H153.571V25.8676H156.462V42.7738ZM153.337 21.3832C153.337 20.9144 153.477 20.5186 153.759 20.1957C154.05 19.8728 154.477 19.7113 155.04 19.7113C155.602 19.7113 156.03 19.8728 156.321 20.1957C156.613 20.5186 156.759 20.9144 156.759 21.3832C156.759 21.8519 156.613 22.2426 156.321 22.5551C156.03 22.8676 155.602 23.0238 155.04 23.0238C154.477 23.0238 154.05 22.8676 153.759 22.5551C153.477 22.2426 153.337 21.8519 153.337 21.3832ZM163.837 25.8676L163.931 27.9926C165.222 26.3676 166.91 25.5551 168.993 25.5551C172.566 25.5551 174.368 27.5707 174.399 31.6019V42.7738H171.509V31.5863C171.498 30.3676 171.217 29.4665 170.665 28.8832C170.123 28.2998 169.274 28.0082 168.118 28.0082C167.181 28.0082 166.358 28.2582 165.649 28.7582C164.941 29.2582 164.389 29.9144 163.993 30.7269V42.7738H161.102V25.8676H163.837ZM189.196 41.1019C188.071 42.4248 186.42 43.0863 184.243 43.0863C182.441 43.0863 181.066 42.5655 180.118 41.5238C179.181 40.4717 178.707 38.9196 178.696 36.8676V25.8676H181.587V36.7894C181.587 39.3519 182.628 40.6332 184.712 40.6332C186.92 40.6332 188.389 39.8103 189.118 38.1644V25.8676H192.009V42.7738H189.259L189.196 41.1019ZM206.852 42.7738C206.686 42.4405 206.55 41.8467 206.446 40.9926C205.102 42.3884 203.498 43.0863 201.634 43.0863C199.967 43.0863 198.597 42.6176 197.524 41.6801C196.462 40.7321 195.931 39.5342 195.931 38.0863C195.931 36.3259 196.597 34.9613 197.931 33.9926C199.274 33.0134 201.16 32.5238 203.587 32.5238H206.399V31.1957C206.399 30.1853 206.097 29.3832 205.493 28.7894C204.889 28.1853 203.998 27.8832 202.821 27.8832C201.79 27.8832 200.925 28.1436 200.227 28.6644C199.53 29.1853 199.181 29.8155 199.181 30.5551H196.274C196.274 29.7113 196.571 28.8988 197.165 28.1176C197.769 27.3259 198.582 26.7009 199.602 26.2426C200.634 25.7842 201.764 25.5551 202.993 25.5551C204.941 25.5551 206.467 26.0446 207.571 27.0238C208.675 27.9926 209.248 29.3311 209.29 31.0394V38.8207C209.29 40.3728 209.488 41.6071 209.884 42.5238V42.7738H206.852ZM202.056 40.5707C202.962 40.5707 203.821 40.3363 204.634 39.8676C205.446 39.3988 206.035 38.7894 206.399 38.0394V34.5707H204.134C200.592 34.5707 198.821 35.6071 198.821 37.6801C198.821 38.5863 199.123 39.2946 199.727 39.8051C200.332 40.3155 201.108 40.5707 202.056 40.5707ZM221.993 28.4613C221.556 28.3884 221.082 28.3519 220.571 28.3519C218.675 28.3519 217.389 29.1592 216.712 30.7738V42.7738H213.821V25.8676H216.634L216.681 27.8207C217.628 26.3103 218.972 25.5551 220.712 25.5551C221.274 25.5551 221.701 25.628 221.993 25.7738V28.4613Z" fill="white"/>
</svg>
